<svg xmlns="http://www.w3.org/2000/svg" xmlns:xlink="http://www.w3.org/1999/xlink" contentStyleType="text/css" data-diagram-type="CLASS" height="759px" preserveAspectRatio="none" style="width:891px;height:759px;background:#FFFFFF;" version="1.1" viewBox="0 0 891 759" width="891px" zoomAndPan="magnify"><defs/><g><!--cluster Main Script--><g class="cluster" data-entity="Main Script" data-source-line="4" data-uid="ent0002" id="cluster_Main Script"><path d="M282.5,6 L373.3174,6 A3.75,3.75 0 0 1 375.8174,8.5 L382.8174,28.2969 L382.5,28.2969 A2.5,2.5 0 0 1 385,30.7969 L385,118.5 A2.5,2.5 0 0 1 382.5,121 L282.5,121 A2.5,2.5 0 0 1 280,118.5 L280,8.5 A2.5,2.5 0 0 1 282.5,6" fill="none" style="stroke:#000000;stroke-width:1.5;"/><line style="stroke:#000000;stroke-width:1.5;" x1="280" x2="382.8174" y1="28.2969" y2="28.2969"/><text fill="#000000" font-family="sans-serif" font-size="14" font-weight="bold" lengthAdjust="spacing" textLength="89.8174" x="284" y="20.9951">Main Script</text></g><!--cluster Hardware--><g class="cluster" data-entity="Hardware" data-source-line="10" data-uid="ent0004" id="cluster_Hardware"><path d="M8.5,349 L86.3701,349 A3.75,3.75 0 0 1 88.8701,351.5 L95.8701,371.2969 L559.5,371.2969 A2.5,2.5 0 0 1 562,373.7969 L562,592.5 A2.5,2.5 0 0 1 559.5,595 L8.5,595 A2.5,2.5 0 0 1 6,592.5 L6,351.5 A2.5,2.5 0 0 1 8.5,349" fill="none" style="stroke:#000000;stroke-width:1.5;"/><line style="stroke:#000000;stroke-width:1.5;" x1="6" x2="95.8701" y1="371.2969" y2="371.2969"/><text fill="#000000" font-family="sans-serif" font-size="14" font-weight="bold" lengthAdjust="spacing" textLength="76.8701" x="10" y="363.9951">Hardware</text></g><!--cluster Routines--><g class="cluster" data-entity="Routines" data-source-line="37" data-uid="ent0007" id="cluster_Routines"><path d="M371.5,145 L442.1514,145 A3.75,3.75 0 0 1 444.6514,147.5 L451.6514,167.2969 L654.5,167.2969 A2.5,2.5 0 0 1 657,169.7969 L657,322.5 A2.5,2.5 0 0 1 654.5,325 L371.5,325 A2.5,2.5 0 0 1 369,322.5 L369,147.5 A2.5,2.5 0 0 1 371.5,145" fill="none" style="stroke:#000000;stroke-width:1.5;"/><line style="stroke:#000000;stroke-width:1.5;" x1="369" x2="451.6514" y1="167.2969" y2="167.2969"/><text fill="#000000" font-family="sans-serif" font-size="14" font-weight="bold" lengthAdjust="spacing" textLength="69.6514" x="373" y="159.9951">Routines</text></g><!--cluster Utils--><g class="cluster" data-entity="Utils" data-source-line="48" data-uid="ent0009" id="cluster_Utils"><path d="M588.5,398 L625.4912,398 A3.75,3.75 0 0 1 627.9912,400.5 L634.9912,420.2969 L881.5,420.2969 A2.5,2.5 0 0 1 884,422.7969 L884,749.5 A2.5,2.5 0 0 1 881.5,752 L588.5,752 A2.5,2.5 0 0 1 586,749.5 L586,400.5 A2.5,2.5 0 0 1 588.5,398" fill="none" style="stroke:#000000;stroke-width:1.5;"/><line style="stroke:#000000;stroke-width:1.5;" x1="586" x2="634.9912" y1="420.2969" y2="420.2969"/><text fill="#000000" font-family="sans-serif" font-size="14" font-weight="bold" lengthAdjust="spacing" textLength="35.9912" x="590" y="412.9951">Utils</text></g><!--class Main--><g class="entity" data-entity="Main" data-source-line="5" data-uid="ent0003" id="entity_Main"><rect fill="#F1F1F1" height="64.2969" rx="2.5" ry="2.5" style="stroke:#181818;stroke-width:0.5;" width="69.6338" x="297" y="41"/><ellipse cx="313.8958" cy="57" fill="#ADD1B2" rx="11" ry="11" style="stroke:#181818;stroke-width:1;"/><path d="M316.8646,62.6406 Q316.2864,62.9375 315.6458,63.0781 Q315.0052,63.2344 314.3021,63.2344 Q311.8021,63.2344 310.4739,61.5938 Q309.1614,59.9375 309.1614,56.8125 Q309.1614,53.6875 310.4739,52.0313 Q311.8021,50.375 314.3021,50.375 Q315.0052,50.375 315.6458,50.5313 Q316.3021,50.6875 316.8646,50.9844 L316.8646,53.7031 Q316.2396,53.125 315.6458,52.8594 Q315.0521,52.5781 314.4271,52.5781 Q313.0833,52.5781 312.3958,53.6563 Q311.7083,54.7188 311.7083,56.8125 Q311.7083,58.9063 312.3958,59.9844 Q313.0833,61.0469 314.4271,61.0469 Q315.0521,61.0469 315.6458,60.7813 Q316.2396,60.5 316.8646,59.9219 L316.8646,62.6406 Z " fill="#000000"/><text fill="#000000" font-family="sans-serif" font-size="14" lengthAdjust="spacing" textLength="33.4209" x="328.3171" y="61.8467">Main</text><line style="stroke:#181818;stroke-width:0.5;" x1="298" x2="365.6338" y1="73" y2="73"/><line style="stroke:#181818;stroke-width:0.5;" x1="298" x2="365.6338" y1="81" y2="81"/><text fill="#000000" font-family="sans-serif" font-size="14" lengthAdjust="spacing" textLength="57.6338" x="303" y="97.9951">+main()</text></g><!--class ArduinoNode--><g class="entity" data-entity="ArduinoNode" data-source-line="11" data-uid="ent0005" id="entity_ArduinoNode"><rect fill="#F1F1F1" height="194.6719" rx="2.5" ry="2.5" style="stroke:#181818;stroke-width:0.5;" width="242.7813" x="22.5" y="384"/><ellipse cx="94.1611" cy="400" fill="#ADD1B2" rx="11" ry="11" style="stroke:#181818;stroke-width:1;"/><path d="M97.1299,405.6406 Q96.5518,405.9375 95.9111,406.0781 Q95.2705,406.2344 94.5674,406.2344 Q92.0674,406.2344 90.7393,404.5938 Q89.4268,402.9375 89.4268,399.8125 Q89.4268,396.6875 90.7393,395.0313 Q92.0674,393.375 94.5674,393.375 Q95.2705,393.375 95.9111,393.5313 Q96.5674,393.6875 97.1299,393.9844 L97.1299,396.7031 Q96.5049,396.125 95.9111,395.8594 Q95.3174,395.5781 94.6924,395.5781 Q93.3486,395.5781 92.6611,396.6563 Q91.9736,397.7188 91.9736,399.8125 Q91.9736,401.9063 92.6611,402.9844 Q93.3486,404.0469 94.6924,404.0469 Q95.3174,404.0469 95.9111,403.7813 Q96.5049,403.5 97.1299,402.9219 L97.1299,405.6406 Z " fill="#000000"/><text fill="#000000" font-family="sans-serif" font-size="14" lengthAdjust="spacing" textLength="90.959" x="114.6611" y="404.8467">ArduinoNode</text><line style="stroke:#181818;stroke-width:0.5;" x1="23.5" x2="264.2813" y1="416" y2="416"/><text fill="#000000" font-family="sans-serif" font-size="14" lengthAdjust="spacing" textLength="65.9053" x="28.5" y="432.9951">-port : str</text><text fill="#000000" font-family="sans-serif" font-size="14" lengthAdjust="spacing" textLength="100.584" x="28.5" y="449.292">-baudrate : int</text><text fill="#000000" font-family="sans-serif" font-size="14" lengthAdjust="spacing" textLength="144.9355" x="28.5" y="465.5889">-data_queue : deque</text><text fill="#000000" font-family="sans-serif" font-size="14" lengthAdjust="spacing" textLength="102.6006" x="28.5" y="481.8857">-running : bool</text><text fill="#000000" font-family="sans-serif" font-size="14" lengthAdjust="spacing" textLength="79.9463" x="28.5" y="498.1826">-ser : Serial</text><line style="stroke:#181818;stroke-width:0.5;" x1="23.5" x2="264.2813" y1="505.4844" y2="505.4844"/><text fill="#000000" font-family="sans-serif" font-size="14" lengthAdjust="spacing" textLength="46.1563" x="28.5" y="522.4795">+run()</text><text fill="#000000" font-family="sans-serif" font-size="14" lengthAdjust="spacing" textLength="230.3027" x="28.5" y="538.7764">+get_latest_value(key: str) : Any</text><text fill="#000000" font-family="sans-serif" font-size="14" lengthAdjust="spacing" textLength="230.7813" x="28.5" y="555.0732">+send_command(command: str)</text><text fill="#000000" font-family="sans-serif" font-size="14" lengthAdjust="spacing" textLength="52.8896" x="28.5" y="571.3701">+stop()</text></g><!--class RobotInterface--><g class="entity" data-entity="RobotInterface" data-source-line="24" data-uid="ent0006" id="entity_RobotInterface"><rect fill="#F1F1F1" height="178.375" rx="2.5" ry="2.5" style="stroke:#181818;stroke-width:0.5;" width="244.8389" x="300.5" y="392.5"/><ellipse cx="366.7129" cy="408.5" fill="#ADD1B2" rx="11" ry="11" style="stroke:#181818;stroke-width:1;"/><path d="M369.6816,414.1406 Q369.1035,414.4375 368.4629,414.5781 Q367.8223,414.7344 367.1191,414.7344 Q364.6191,414.7344 363.291,413.0938 Q361.9785,411.4375 361.9785,408.3125 Q361.9785,405.1875 363.291,403.5313 Q364.6191,401.875 367.1191,401.875 Q367.8223,401.875 368.4629,402.0313 Q369.1191,402.1875 369.6816,402.4844 L369.6816,405.2031 Q369.0566,404.625 368.4629,404.3594 Q367.8691,404.0781 367.2441,404.0781 Q365.9004,404.0781 365.2129,405.1563 Q364.5254,406.2188 364.5254,408.3125 Q364.5254,410.4063 365.2129,411.4844 Q365.9004,412.5469 367.2441,412.5469 Q367.8691,412.5469 368.4629,412.2813 Q369.0566,412 369.6816,411.4219 L369.6816,414.1406 Z " fill="#000000"/><text fill="#000000" font-family="sans-serif" font-size="14" lengthAdjust="spacing" textLength="103.9131" x="387.2129" y="413.3467">RobotInterface</text><line style="stroke:#181818;stroke-width:0.5;" x1="301.5" x2="544.3389" y1="424.5" y2="424.5"/><text fill="#000000" font-family="sans-serif" font-size="14" lengthAdjust="spacing" textLength="49.9844" x="306.5" y="441.4951">-ip : str</text><text fill="#000000" font-family="sans-serif" font-size="14" lengthAdjust="spacing" textLength="225.6816" x="306.5" y="457.792">+control : RTDEControlInterface</text><text fill="#000000" font-family="sans-serif" font-size="14" lengthAdjust="spacing" textLength="232.8389" x="306.5" y="474.0889">+receive : RTDEReceiveInterface</text><text fill="#000000" font-family="sans-serif" font-size="14" lengthAdjust="spacing" textLength="153.5352" x="306.5" y="490.3857">+io : RTDEIOInterface</text><line style="stroke:#181818;stroke-width:0.5;" x1="301.5" x2="544.3389" y1="497.6875" y2="497.6875"/><text fill="#000000" font-family="sans-serif" font-size="14" lengthAdjust="spacing" textLength="78.4629" x="306.5" y="514.6826">+connect()</text><text fill="#000000" font-family="sans-serif" font-size="14" lengthAdjust="spacing" textLength="92.832" x="306.5" y="530.9795">+reconnect()</text><text fill="#000000" font-family="sans-serif" font-size="14" lengthAdjust="spacing" textLength="124.4824" x="306.5" y="547.2764">+is_ready() : bool</text><text fill="#000000" font-family="sans-serif" font-size="14" lengthAdjust="spacing" textLength="52.8896" x="306.5" y="563.5732">+stop()</text></g><!--class BaseRoutine--><g class="entity" data-entity="BaseRoutine" data-source-line="38" data-uid="ent0008" id="entity_BaseRoutine"><rect fill="#F1F1F1" height="129.4844" rx="2.5" ry="2.5" style="stroke:#181818;stroke-width:0.5;" width="255.2432" x="385.5" y="180"/><ellipse cx="464.8105" cy="196" fill="#A9DCDF" rx="11" ry="11" style="stroke:#181818;stroke-width:1;"/><path d="M464.9199,191.3438 L463.7637,196.4219 L466.0918,196.4219 L464.9199,191.3438 Z M463.4355,189.1094 L466.4199,189.1094 L469.7793,201.5 L467.3262,201.5 L466.5605,198.4375 L463.2793,198.4375 L462.5293,201.5 L460.0918,201.5 L463.4355,189.1094 Z " fill="#000000"/><text fill="#000000" font-family="sans-serif" font-size="14" font-style="italic" lengthAdjust="spacing" textLength="88.1221" x="485.3105" y="200.8467">BaseRoutine</text><line style="stroke:#181818;stroke-width:0.5;" x1="386.5" x2="639.7432" y1="212" y2="212"/><text fill="#000000" font-family="sans-serif" font-size="14" lengthAdjust="spacing" textLength="166.5234" x="391.5" y="228.9951">#robot : RobotInterface</text><text fill="#000000" font-family="sans-serif" font-size="14" lengthAdjust="spacing" textLength="243.2432" x="391.5" y="245.292">#arduinos : Dict[str, ArduinoNode]</text><line style="stroke:#181818;stroke-width:0.5;" x1="386.5" x2="639.7432" y1="252.5938" y2="252.5938"/><text fill="#000000" font-family="sans-serif" font-size="14" lengthAdjust="spacing" textLength="116.3545" x="391.5" y="269.5889">+execute(*args)</text><text fill="#000000" font-family="sans-serif" font-size="14" lengthAdjust="spacing" textLength="205.584" x="391.5" y="285.8857">+ensure_robot_ready() : bool</text><text fill="#000000" font-family="sans-serif" font-size="14" font-style="italic" lengthAdjust="spacing" textLength="123.6006" x="391.5" y="302.1826">+run_logic(*args)</text></g><!--class ExperimentLogger--><g class="entity" data-entity="ExperimentLogger" data-source-line="49" data-uid="ent0010" id="entity_ExperimentLogger"><rect fill="#F1F1F1" height="96.8906" rx="2.5" ry="2.5" style="stroke:#181818;stroke-width:0.5;" width="196.9736" x="602.5" y="433"/><ellipse cx="633.5093" cy="449" fill="#ADD1B2" rx="11" ry="11" style="stroke:#181818;stroke-width:1;"/><path d="M636.478,454.6406 Q635.8999,454.9375 635.2593,455.0781 Q634.6187,455.2344 633.9155,455.2344 Q631.4155,455.2344 630.0874,453.5938 Q628.7749,451.9375 628.7749,448.8125 Q628.7749,445.6875 630.0874,444.0313 Q631.4155,442.375 633.9155,442.375 Q634.6187,442.375 635.2593,442.5313 Q635.9155,442.6875 636.478,442.9844 L636.478,445.7031 Q635.853,445.125 635.2593,444.8594 Q634.6655,444.5781 634.0405,444.5781 Q632.6968,444.5781 632.0093,445.6563 Q631.3218,446.7188 631.3218,448.8125 Q631.3218,450.9063 632.0093,451.9844 Q632.6968,453.0469 634.0405,453.0469 Q634.6655,453.0469 635.2593,452.7813 Q635.853,452.5 636.478,451.9219 L636.478,454.6406 Z " fill="#000000"/><text fill="#000000" font-family="sans-serif" font-size="14" lengthAdjust="spacing" textLength="129.3975" x="651.0669" y="453.8467">ExperimentLogger</text><line style="stroke:#181818;stroke-width:0.5;" x1="603.5" x2="798.4736" y1="465" y2="465"/><line style="stroke:#181818;stroke-width:0.5;" x1="603.5" x2="798.4736" y1="473" y2="473"/><text fill="#000000" font-family="sans-serif" font-size="14" lengthAdjust="spacing" textLength="131.6875" x="608.5" y="489.9951">+init_csv(headers)</text><text fill="#000000" font-family="sans-serif" font-size="14" lengthAdjust="spacing" textLength="108.3018" x="608.5" y="506.292">+log_data(row)</text><text fill="#000000" font-family="sans-serif" font-size="14" lengthAdjust="spacing" textLength="184.9736" x="608.5" y="522.5889">+save_and_close(filepath)</text></g><!--class LivePlotter--><g class="entity" data-entity="LivePlotter" data-source-line="55" data-uid="ent0011" id="entity_LivePlotter"><rect fill="#F1F1F1" height="96.8906" rx="2.5" ry="2.5" style="stroke:#181818;stroke-width:0.5;" width="266.2764" x="602" y="639"/><ellipse cx="693.4717" cy="655" fill="#ADD1B2" rx="11" ry="11" style="stroke:#181818;stroke-width:1;"/><path d="M696.4404,660.6406 Q695.8623,660.9375 695.2217,661.0781 Q694.5811,661.2344 693.8779,661.2344 Q691.3779,661.2344 690.0498,659.5938 Q688.7373,657.9375 688.7373,654.8125 Q688.7373,651.6875 690.0498,650.0313 Q691.3779,648.375 693.8779,648.375 Q694.5811,648.375 695.2217,648.5313 Q695.8779,648.6875 696.4404,648.9844 L696.4404,651.7031 Q695.8154,651.125 695.2217,650.8594 Q694.6279,650.5781 694.0029,650.5781 Q692.6592,650.5781 691.9717,651.6563 Q691.2842,652.7188 691.2842,654.8125 Q691.2842,656.9063 691.9717,657.9844 Q692.6592,659.0469 694.0029,659.0469 Q694.6279,659.0469 695.2217,658.7813 Q695.8154,658.5 696.4404,657.9219 L696.4404,660.6406 Z " fill="#000000"/><text fill="#000000" font-family="sans-serif" font-size="14" lengthAdjust="spacing" textLength="74.833" x="713.9717" y="659.8467">LivePlotter</text><line style="stroke:#181818;stroke-width:0.5;" x1="603" x2="867.2764" y1="671" y2="671"/><line style="stroke:#181818;stroke-width:0.5;" x1="603" x2="867.2764" y1="679" y2="679"/><text fill="#000000" font-family="sans-serif" font-size="14" lengthAdjust="spacing" textLength="254.2764" x="608" y="695.9951">+init_plotter(name, x_label, y_label)</text><text fill="#000000" font-family="sans-serif" font-size="14" lengthAdjust="spacing" textLength="97.4531" x="608" y="712.292">+update(x, y)</text><text fill="#000000" font-family="sans-serif" font-size="14" lengthAdjust="spacing" textLength="184.9736" x="608" y="728.5889">+save_and_close(filepath)</text></g><!--link ExperimentLogger to LivePlotter--><!--link Main to RobotInterface--><g class="link" data-entity-1="Main" data-entity-2="RobotInterface" data-source-line="65" data-uid="lnk13" id="link_Main_RobotInterface"><path codeLine="65" d="M333.75,105.05 C333.75,166.28 333.75,295.8 333.75,386.41" fill="none" id="Main-to-RobotInterface" style="stroke:#181818;stroke-width:1;"/><polygon fill="#181818" points="333.75,392.41,337.75,383.41,333.75,387.41,329.75,383.41,333.75,392.41" style="stroke:#181818;stroke-width:1;"/><text fill="#000000" font-family="sans-serif" font-size="13" lengthAdjust="spacing" textLength="20.5601" x="312.75" y="244.7969">init</text></g><!--link Main to ArduinoNode--><g class="link" data-entity-1="Main" data-entity-2="ArduinoNode" data-source-line="66" data-uid="lnk14" id="link_Main_ArduinoNode"><path codeLine="66" d="M317.12,105.13 C317.12,185.16 317.12,387 317.12,387 C317.12,387 300.52,387 271.65,387" fill="none" id="Main-to-ArduinoNode" style="stroke:#181818;stroke-width:1;"/><polygon fill="#181818" points="265.65,387,274.65,391,270.65,387,274.65,383,265.65,387" style="stroke:#181818;stroke-width:1;"/><text fill="#000000" font-family="sans-serif" font-size="13" lengthAdjust="spacing" textLength="20.5601" x="296.12" y="267.8669">init</text></g><!--link Main to BaseRoutine--><g class="link" data-entity-1="Main" data-entity-2="BaseRoutine" data-source-line="67" data-uid="lnk15" id="link_Main_BaseRoutine"><path codeLine="67" d="M350.38,105.35 C350.38,155.18 350.38,245 350.38,245 C350.38,245 358.9,245 379.26,245" fill="none" id="Main-to-BaseRoutine" style="stroke:#181818;stroke-width:1;stroke-dasharray:7,7;"/><polygon fill="#181818" points="385.26,245,376.26,241,380.26,245,376.26,249,385.26,245" style="stroke:#181818;stroke-width:1;"/><text fill="#000000" font-family="sans-serif" font-size="13" lengthAdjust="spacing" textLength="27.7837" x="322.38" y="188.6869">load</text></g><!--reverse link BaseRoutine to RobotInterface--><g class="link" data-entity-1="BaseRoutine" data-entity-2="RobotInterface" data-source-line="69" data-uid="lnk16" id="link_BaseRoutine_RobotInterface"><path codeLine="69" d="M492.17,321.26 C492.17,346.89 492.17,364.77 492.17,392.39" fill="none" id="BaseRoutine-backto-RobotInterface" style="stroke:#181818;stroke-width:1;"/><polygon fill="none" points="492.17,309.26,488.17,315.26,492.17,321.26,496.17,315.26,492.17,309.26" style="stroke:#181818;stroke-width:1;"/><text fill="#000000" font-family="sans-serif" font-size="13" lengthAdjust="spacing" textLength="29.7832" x="462.17" y="346.8869">uses</text></g><!--reverse link BaseRoutine to ArduinoNode--><g class="link" data-entity-1="BaseRoutine" data-entity-2="ArduinoNode" data-source-line="70" data-uid="lnk17" id="link_BaseRoutine_ArduinoNode"><path codeLine="70" d="M438.83,321.17 C438.83,360.03 438.83,390 438.83,390 C438.83,390 346.84,390 265.62,390" fill="none" id="BaseRoutine-backto-ArduinoNode" style="stroke:#181818;stroke-width:1;"/><polygon fill="none" points="438.83,309.17,434.83,315.17,438.83,321.17,442.83,315.17,438.83,309.17" style="stroke:#181818;stroke-width:1;"/><text fill="#000000" font-family="sans-serif" font-size="13" lengthAdjust="spacing" textLength="29.7832" x="362.64" y="386.0669">uses</text></g><!--link BaseRoutine to ExperimentLogger--><g class="link" data-entity-1="BaseRoutine" data-entity-2="ExperimentLogger" data-source-line="71" data-uid="lnk18" id="link_BaseRoutine_ExperimentLogger"><path codeLine="71" d="M621.5,309.26 C621.5,348.32 621.5,391.26 621.5,426.99" fill="none" id="BaseRoutine-to-ExperimentLogger" style="stroke:#181818;stroke-width:1;stroke-dasharray:7,7;"/><polygon fill="#181818" points="621.5,432.99,625.5,423.99,621.5,427.99,617.5,423.99,621.5,432.99" style="stroke:#181818;stroke-width:1;"/><text fill="#000000" font-family="sans-serif" font-size="13" lengthAdjust="spacing" textLength="29.7832" x="591.5" y="367.1869">uses</text></g><!--link BaseRoutine to LivePlotter--><g class="link" data-entity-1="BaseRoutine" data-entity-2="LivePlotter" data-source-line="72" data-uid="lnk19" id="link_BaseRoutine_LivePlotter"><path codeLine="72" d="M573.75,309.46 C573.75,432.65 573.75,688 573.75,688 C573.75,688 579.13,688 595.84,688" fill="none" id="BaseRoutine-to-LivePlotter" style="stroke:#181818;stroke-width:1;stroke-dasharray:7,7;"/><polygon fill="#181818" points="601.84,688,592.84,684,596.84,688,592.84,692,601.84,688" style="stroke:#181818;stroke-width:1;"/><text fill="#000000" font-family="sans-serif" font-size="13" lengthAdjust="spacing" textLength="29.7832" x="567" y="525.8469">uses</text></g><!--SRC=[bLJ9Rjim4BthAuZqKAMnWfvzCE0q0MeWNM2tfo0GHjH49YoHB3box0R-zuwME9Jb7Ag3bdbFipozaTyeRS519MG9ti-9dCfgmeKqUgN-elWS-IEbL1ffRr4OHsiJHHRa1WeK5zz0QR6IJbcw42-HuADD9rgW2pJ7bQWu45-sWKDq259y1PS_WyFX-tENrqgRxoR784qYB7SWfiAJ2u8PrBa3GWQKfW38WI3zKsFTG3doNG2wMckb2qOoOye0yEWuk4Adu2sSfi4m_6e_I_TS8AKbD-0ftK9POxp1VTla9IUQwtr0zQZpL9gg0ft7_RMZXYGozYXMeChIP8OMcj0zWHmAe-o9B5U2loGvKt9y-UlsxaltT7mx70SbgYtsn6NtT8weJCzP_1Z30uMujaP90vMup9ceygb3oFVnvUcNED4XDCtIrCIUzA-cWOn71qczJZVWiQS48dqGhj6l6M6WOq20pdQUERTAqWDddOHUV3m_BUvGykx4dy0LFXmEjQyTfctTzyPyUMt-q3ahBKsXP9XhEFjlKgKVRilTph9RAzHqRug2xHjkdjAAKkctyPhhenlqnwNIPabYPvu71eGjfj0ujJGUuoTLeWLQdx7aFLlbPsc8pbMr7H1hg70YThmZ6POJiUzkmeArvJOmtZ7u7tqqv_Oq4Y1vMAiyH_sOp88E6nq_YYNohYgZ_LfP7xL_gYIPdIxNj1tX3Gx_I25sVJqR-6tAea8UHM7C9CauVUtHZrZ3AYDAKsmqwpkyyCjqb7y0]--></g></svg>